<mxfile host="www.draw.io" modified="2019-11-26T14:56:28.420Z" agent="Mozilla/5.0 (Windows NT 10.0; Win64; x64) AppleWebKit/537.36 (KHTML, like Gecko) Chrome/78.0.3904.108 Safari/537.36" etag="5ECn-JT1jDOMLQOq7slO" version="12.3.1" type="github" pages="1">
  <diagram name="Page-1" id="5f0bae14-7c28-e335-631c-24af17079c00">
    <mxGraphModel dx="1677" dy="1644" grid="1" gridSize="10" guides="1" tooltips="1" connect="1" arrows="1" fold="1" page="1" pageScale="1" pageWidth="1100" pageHeight="850" background="#ffffff" math="0" shadow="0">
      <root>
        <mxCell id="0"/>
        <mxCell id="1" parent="0"/>
        <mxCell id="9U_FHvRIvwocUFl6-Jfe-103" value="" style="rounded=1;arcSize=10;dashed=1;strokeColor=#000000;fillColor=none;gradientColor=none;dashPattern=8 3 1 3;strokeWidth=2;" parent="1" vertex="1">
          <mxGeometry x="120" y="-160" width="1661" height="1040" as="geometry"/>
        </mxCell>
        <mxCell id="9U_FHvRIvwocUFl6-Jfe-98" value="" style="rounded=1;arcSize=10;dashed=1;strokeColor=#000000;fillColor=none;gradientColor=none;dashPattern=8 3 1 3;strokeWidth=2;" parent="1" vertex="1">
          <mxGeometry x="370" width="300" height="120" as="geometry"/>
        </mxCell>
        <mxCell id="9U_FHvRIvwocUFl6-Jfe-1" value="GateWay API" style="rounded=0;whiteSpace=wrap;html=1;" parent="1" vertex="1">
          <mxGeometry x="435" y="40" width="190" height="60" as="geometry"/>
        </mxCell>
        <mxCell id="9U_FHvRIvwocUFl6-Jfe-2" value="&lt;b&gt;Transport&lt;/b&gt;" style="rounded=0;whiteSpace=wrap;html=1;fillColor=#f8cecc;strokeColor=#b85450;" parent="1" vertex="1">
          <mxGeometry x="200" y="190" width="120" height="60" as="geometry"/>
        </mxCell>
        <mxCell id="9U_FHvRIvwocUFl6-Jfe-3" value="&lt;b&gt;Route&lt;/b&gt;" style="rounded=0;whiteSpace=wrap;html=1;fillColor=#fff2cc;strokeColor=#d6b656;" parent="1" vertex="1">
          <mxGeometry x="450" y="190" width="120" height="60" as="geometry"/>
        </mxCell>
        <mxCell id="9U_FHvRIvwocUFl6-Jfe-4" value="&lt;b&gt;Driver&lt;/b&gt;" style="rounded=0;whiteSpace=wrap;html=1;fillColor=#d5e8d4;strokeColor=#82b366;" parent="1" vertex="1">
          <mxGeometry x="700" y="190" width="120" height="60" as="geometry"/>
        </mxCell>
        <mxCell id="9U_FHvRIvwocUFl6-Jfe-5" value="" style="endArrow=classic;html=1;" parent="1" target="9U_FHvRIvwocUFl6-Jfe-2" edge="1">
          <mxGeometry width="50" height="50" relative="1" as="geometry">
            <mxPoint x="440" y="99" as="sourcePoint"/>
            <mxPoint x="190" y="80" as="targetPoint"/>
          </mxGeometry>
        </mxCell>
        <mxCell id="9U_FHvRIvwocUFl6-Jfe-6" value="" style="endArrow=classic;html=1;exitX=0.405;exitY=1;exitDx=0;exitDy=0;exitPerimeter=0;" parent="1" source="9U_FHvRIvwocUFl6-Jfe-1" target="9U_FHvRIvwocUFl6-Jfe-3" edge="1">
          <mxGeometry width="50" height="50" relative="1" as="geometry">
            <mxPoint x="630" y="160" as="sourcePoint"/>
            <mxPoint x="680" y="110" as="targetPoint"/>
          </mxGeometry>
        </mxCell>
        <mxCell id="9U_FHvRIvwocUFl6-Jfe-7" value="" style="endArrow=classic;html=1;exitX=0.984;exitY=1.033;exitDx=0;exitDy=0;entryX=0.5;entryY=0;entryDx=0;entryDy=0;exitPerimeter=0;" parent="1" source="9U_FHvRIvwocUFl6-Jfe-1" target="9U_FHvRIvwocUFl6-Jfe-4" edge="1">
          <mxGeometry width="50" height="50" relative="1" as="geometry">
            <mxPoint x="660" y="240" as="sourcePoint"/>
            <mxPoint x="710" y="190" as="targetPoint"/>
          </mxGeometry>
        </mxCell>
        <mxCell id="9U_FHvRIvwocUFl6-Jfe-8" value="&lt;b&gt;RabbitMQ&amp;nbsp;&lt;/b&gt;" style="rounded=0;whiteSpace=wrap;html=1;" parent="1" vertex="1">
          <mxGeometry x="200" y="508" width="640" height="15" as="geometry"/>
        </mxCell>
        <mxCell id="9U_FHvRIvwocUFl6-Jfe-12" value="&lt;b&gt;&lt;font style=&quot;font-size: 14px&quot;&gt;Estafeta&lt;/font&gt;&lt;/b&gt;" style="rounded=0;whiteSpace=wrap;html=1;" parent="1" vertex="1">
          <mxGeometry x="199.5" y="800" width="721" height="40" as="geometry"/>
        </mxCell>
        <mxCell id="9U_FHvRIvwocUFl6-Jfe-13" value="" style="endArrow=classic;startArrow=classic;html=1;exitX=1;exitY=0.5;exitDx=0;exitDy=0;entryX=0;entryY=0.5;entryDx=0;entryDy=0;" parent="1" source="9U_FHvRIvwocUFl6-Jfe-2" target="9U_FHvRIvwocUFl6-Jfe-3" edge="1">
          <mxGeometry width="50" height="50" relative="1" as="geometry">
            <mxPoint x="350" y="250" as="sourcePoint"/>
            <mxPoint x="450" y="220" as="targetPoint"/>
          </mxGeometry>
        </mxCell>
        <mxCell id="9U_FHvRIvwocUFl6-Jfe-14" value="GRPC" style="text;html=1;strokeColor=none;fillColor=none;align=center;verticalAlign=middle;whiteSpace=wrap;rounded=0;" parent="1" vertex="1">
          <mxGeometry x="360" y="200" width="40" height="20" as="geometry"/>
        </mxCell>
        <mxCell id="9U_FHvRIvwocUFl6-Jfe-15" value="" style="endArrow=classic;startArrow=classic;html=1;exitX=1;exitY=0.5;exitDx=0;exitDy=0;entryX=0;entryY=0.5;entryDx=0;entryDy=0;" parent="1" source="9U_FHvRIvwocUFl6-Jfe-3" target="9U_FHvRIvwocUFl6-Jfe-4" edge="1">
          <mxGeometry width="50" height="50" relative="1" as="geometry">
            <mxPoint x="630" y="270" as="sourcePoint"/>
            <mxPoint x="680" y="220" as="targetPoint"/>
          </mxGeometry>
        </mxCell>
        <mxCell id="9U_FHvRIvwocUFl6-Jfe-16" value="GRPC" style="text;html=1;strokeColor=none;fillColor=none;align=center;verticalAlign=middle;whiteSpace=wrap;rounded=0;" parent="1" vertex="1">
          <mxGeometry x="620" y="200" width="40" height="20" as="geometry"/>
        </mxCell>
        <mxCell id="9U_FHvRIvwocUFl6-Jfe-26" value="&lt;b&gt;EstafetaRouteProducer&lt;/b&gt;" style="text;html=1;strokeColor=none;fillColor=none;align=center;verticalAlign=middle;whiteSpace=wrap;rounded=0;" parent="1" vertex="1">
          <mxGeometry x="498.5" y="696.5" width="40" height="20" as="geometry"/>
        </mxCell>
        <mxCell id="9U_FHvRIvwocUFl6-Jfe-27" value="&lt;b&gt;EstafetaRouteConsumer&lt;/b&gt;" style="text;html=1;strokeColor=none;fillColor=none;align=center;verticalAlign=middle;whiteSpace=wrap;rounded=0;" parent="1" vertex="1">
          <mxGeometry x="676.5" y="696.5" width="40" height="20" as="geometry"/>
        </mxCell>
        <mxCell id="9U_FHvRIvwocUFl6-Jfe-28" value="" style="shape=singleArrow;direction=north;whiteSpace=wrap;html=1;" parent="1" vertex="1">
          <mxGeometry x="503.5" y="554.5" width="30" height="131" as="geometry"/>
        </mxCell>
        <mxCell id="9U_FHvRIvwocUFl6-Jfe-29" value="" style="shape=singleArrow;direction=south;whiteSpace=wrap;html=1;" parent="1" vertex="1">
          <mxGeometry x="668" y="554.5" width="30" height="130" as="geometry"/>
        </mxCell>
        <mxCell id="9U_FHvRIvwocUFl6-Jfe-33" value="&lt;b&gt;UI inteface&lt;/b&gt;" style="rounded=0;whiteSpace=wrap;html=1;fillColor=#dae8fc;strokeColor=#6c8ebf;" parent="1" vertex="1">
          <mxGeometry x="895" y="173" width="90" height="97" as="geometry"/>
        </mxCell>
        <mxCell id="9U_FHvRIvwocUFl6-Jfe-34" value="&lt;font color=&quot;#3333ff&quot;&gt;backend&lt;/font&gt;" style="text;html=1;strokeColor=none;fillColor=none;align=center;verticalAlign=middle;whiteSpace=wrap;rounded=0;" parent="1" vertex="1">
          <mxGeometry x="360" y="268" width="40" height="20" as="geometry"/>
        </mxCell>
        <mxCell id="9U_FHvRIvwocUFl6-Jfe-35" value="&lt;font color=&quot;#3333ff&quot;&gt;backend&lt;/font&gt;" style="text;html=1;strokeColor=none;fillColor=none;align=center;verticalAlign=middle;whiteSpace=wrap;rounded=0;" parent="1" vertex="1">
          <mxGeometry x="620" y="270.5" width="40" height="20" as="geometry"/>
        </mxCell>
        <mxCell id="9U_FHvRIvwocUFl6-Jfe-36" value="Driver card" style="rounded=0;whiteSpace=wrap;html=1;fillColor=#d5e8d4;strokeColor=#82b366;" parent="1" vertex="1">
          <mxGeometry x="1040" y="100" width="120" height="60" as="geometry"/>
        </mxCell>
        <mxCell id="9U_FHvRIvwocUFl6-Jfe-37" value="Driver list" style="rounded=0;whiteSpace=wrap;html=1;" parent="1" vertex="1">
          <mxGeometry x="1040" y="278" width="120" height="60" as="geometry"/>
        </mxCell>
        <mxCell id="9U_FHvRIvwocUFl6-Jfe-38" value="&lt;font color=&quot;#3333ff&quot;&gt;Front end&lt;/font&gt;" style="text;html=1;strokeColor=none;fillColor=none;align=center;verticalAlign=middle;whiteSpace=wrap;rounded=0;" parent="1" vertex="1">
          <mxGeometry x="887.5" y="278" width="105" height="20" as="geometry"/>
        </mxCell>
        <mxCell id="9U_FHvRIvwocUFl6-Jfe-41" value="Route creating" style="rounded=0;whiteSpace=wrap;html=1;" parent="1" vertex="1">
          <mxGeometry x="1220" y="218" width="120" height="60" as="geometry"/>
        </mxCell>
        <mxCell id="9U_FHvRIvwocUFl6-Jfe-42" value="Route Board" style="rounded=0;whiteSpace=wrap;html=1;fillColor=#fff2cc;strokeColor=#d6b656;" parent="1" vertex="1">
          <mxGeometry x="1410" y="218" width="120" height="60" as="geometry"/>
        </mxCell>
        <mxCell id="9U_FHvRIvwocUFl6-Jfe-45" value="List of boards" style="rounded=0;whiteSpace=wrap;html=1;" parent="1" vertex="1">
          <mxGeometry x="1220" y="365" width="120" height="60" as="geometry"/>
        </mxCell>
        <mxCell id="9U_FHvRIvwocUFl6-Jfe-46" value="Transport list" style="rounded=0;whiteSpace=wrap;html=1;" parent="1" vertex="1">
          <mxGeometry x="1390" y="455.5" width="120" height="60" as="geometry"/>
        </mxCell>
        <mxCell id="9U_FHvRIvwocUFl6-Jfe-47" value="" style="endArrow=classic;html=1;entryX=0;entryY=0.5;entryDx=0;entryDy=0;" parent="1" edge="1" target="9U_FHvRIvwocUFl6-Jfe-48">
          <mxGeometry width="50" height="50" relative="1" as="geometry">
            <mxPoint x="1517" y="485" as="sourcePoint"/>
            <mxPoint x="1636" y="485" as="targetPoint"/>
          </mxGeometry>
        </mxCell>
        <mxCell id="9U_FHvRIvwocUFl6-Jfe-48" value="Transport Card" style="rounded=0;whiteSpace=wrap;html=1;fillColor=#f8cecc;strokeColor=#b85450;" parent="1" vertex="1">
          <mxGeometry x="1610" y="453" width="120" height="65" as="geometry"/>
        </mxCell>
        <mxCell id="9U_FHvRIvwocUFl6-Jfe-49" value="Transport Work" style="rounded=0;whiteSpace=wrap;html=1;" parent="1" vertex="1">
          <mxGeometry x="1610" y="188" width="120" height="60" as="geometry"/>
        </mxCell>
        <mxCell id="9U_FHvRIvwocUFl6-Jfe-50" value="Transport Works" style="rounded=0;whiteSpace=wrap;html=1;" parent="1" vertex="1">
          <mxGeometry x="1610" y="320" width="120" height="60" as="geometry"/>
        </mxCell>
        <mxCell id="9U_FHvRIvwocUFl6-Jfe-54" value="+" style="ellipse;whiteSpace=wrap;html=1;aspect=fixed;" parent="1" vertex="1">
          <mxGeometry x="1650" y="312" width="14" height="14" as="geometry"/>
        </mxCell>
        <mxCell id="9U_FHvRIvwocUFl6-Jfe-55" value="" style="edgeStyle=elbowEdgeStyle;elbow=vertical;endArrow=classic;html=1;exitX=0.392;exitY=-0.017;exitDx=0;exitDy=0;exitPerimeter=0;" parent="1" source="9U_FHvRIvwocUFl6-Jfe-50" target="9U_FHvRIvwocUFl6-Jfe-54" edge="1">
          <mxGeometry width="50" height="50" relative="1" as="geometry">
            <mxPoint x="1657" y="319" as="sourcePoint"/>
            <mxPoint x="1700" y="250" as="targetPoint"/>
          </mxGeometry>
        </mxCell>
        <mxCell id="9U_FHvRIvwocUFl6-Jfe-57" value="+" style="ellipse;whiteSpace=wrap;html=1;aspect=fixed;" parent="1" vertex="1">
          <mxGeometry x="1093" y="266.5" width="14" height="14" as="geometry"/>
        </mxCell>
        <mxCell id="9U_FHvRIvwocUFl6-Jfe-59" value="" style="edgeStyle=elbowEdgeStyle;elbow=vertical;endArrow=classic;html=1;entryX=1;entryY=0.5;entryDx=0;entryDy=0;exitX=0;exitY=0.5;exitDx=0;exitDy=0;" parent="1" source="9U_FHvRIvwocUFl6-Jfe-41" target="9U_FHvRIvwocUFl6-Jfe-37" edge="1">
          <mxGeometry width="50" height="50" relative="1" as="geometry">
            <mxPoint x="1220" y="360" as="sourcePoint"/>
            <mxPoint x="1270" y="310" as="targetPoint"/>
          </mxGeometry>
        </mxCell>
        <mxCell id="9U_FHvRIvwocUFl6-Jfe-62" value="" style="edgeStyle=elbowEdgeStyle;elbow=vertical;endArrow=classic;html=1;" parent="1" source="9U_FHvRIvwocUFl6-Jfe-42" target="9U_FHvRIvwocUFl6-Jfe-41" edge="1">
          <mxGeometry width="50" height="50" relative="1" as="geometry">
            <mxPoint x="1490" y="190" as="sourcePoint"/>
            <mxPoint x="1400" y="150" as="targetPoint"/>
          </mxGeometry>
        </mxCell>
        <mxCell id="9U_FHvRIvwocUFl6-Jfe-63" value="+" style="ellipse;whiteSpace=wrap;html=1;aspect=fixed;" parent="1" vertex="1">
          <mxGeometry x="1400" y="243" width="14" height="14" as="geometry"/>
        </mxCell>
        <mxCell id="9U_FHvRIvwocUFl6-Jfe-64" value="" style="endArrow=classic;html=1;exitX=0.5;exitY=1;exitDx=0;exitDy=0;entryX=0.5;entryY=0;entryDx=0;entryDy=0;" parent="1" source="9U_FHvRIvwocUFl6-Jfe-41" target="9U_FHvRIvwocUFl6-Jfe-45" edge="1">
          <mxGeometry width="50" height="50" relative="1" as="geometry">
            <mxPoint x="1270" y="370" as="sourcePoint"/>
            <mxPoint x="1320" y="320" as="targetPoint"/>
          </mxGeometry>
        </mxCell>
        <mxCell id="9U_FHvRIvwocUFl6-Jfe-65" value="" style="endArrow=classic;html=1;exitX=0.5;exitY=1;exitDx=0;exitDy=0;entryX=0;entryY=0.5;entryDx=0;entryDy=0;" parent="1" source="9U_FHvRIvwocUFl6-Jfe-45" target="9U_FHvRIvwocUFl6-Jfe-46" edge="1">
          <mxGeometry width="50" height="50" relative="1" as="geometry">
            <mxPoint x="1210" y="500" as="sourcePoint"/>
            <mxPoint x="1390" y="486" as="targetPoint"/>
            <Array as="points">
              <mxPoint x="1280" y="486"/>
            </Array>
          </mxGeometry>
        </mxCell>
        <mxCell id="9U_FHvRIvwocUFl6-Jfe-67" value="" style="endArrow=classic;html=1;exitX=0.383;exitY=1;exitDx=0;exitDy=0;exitPerimeter=0;" parent="1" source="9U_FHvRIvwocUFl6-Jfe-42" edge="1">
          <mxGeometry width="50" height="50" relative="1" as="geometry">
            <mxPoint x="1420" y="350" as="sourcePoint"/>
            <mxPoint x="1607" y="350" as="targetPoint"/>
            <Array as="points">
              <mxPoint x="1456" y="350"/>
            </Array>
          </mxGeometry>
        </mxCell>
        <mxCell id="9U_FHvRIvwocUFl6-Jfe-68" value="" style="endArrow=classic;html=1;exitX=0.5;exitY=0;exitDx=0;exitDy=0;" parent="1" source="9U_FHvRIvwocUFl6-Jfe-57" target="9U_FHvRIvwocUFl6-Jfe-36" edge="1">
          <mxGeometry width="50" height="50" relative="1" as="geometry">
            <mxPoint x="1100" y="260" as="sourcePoint"/>
            <mxPoint x="1130" y="220" as="targetPoint"/>
          </mxGeometry>
        </mxCell>
        <mxCell id="9U_FHvRIvwocUFl6-Jfe-70" value="+" style="ellipse;whiteSpace=wrap;html=1;aspect=fixed;" parent="1" vertex="1">
          <mxGeometry x="1503" y="471.5" width="14" height="14" as="geometry"/>
        </mxCell>
        <mxCell id="9U_FHvRIvwocUFl6-Jfe-74" value="" style="endArrow=classic;html=1;entryX=0.408;entryY=1.017;entryDx=0;entryDy=0;entryPerimeter=0;" parent="1" target="9U_FHvRIvwocUFl6-Jfe-49" edge="1">
          <mxGeometry width="50" height="50" relative="1" as="geometry">
            <mxPoint x="1659" y="310" as="sourcePoint"/>
            <mxPoint x="1660" y="250" as="targetPoint"/>
          </mxGeometry>
        </mxCell>
        <mxCell id="9U_FHvRIvwocUFl6-Jfe-76" value="" style="shape=curlyBracket;whiteSpace=wrap;html=1;rounded=1;" parent="1" vertex="1">
          <mxGeometry x="980" y="120" width="60" height="200" as="geometry"/>
        </mxCell>
        <mxCell id="9U_FHvRIvwocUFl6-Jfe-79" value="&lt;font style=&quot;font-size: 18px&quot;&gt;&lt;b&gt;TMS&lt;/b&gt;&lt;/font&gt;" style="rounded=0;whiteSpace=wrap;html=1;fillColor=#f5f5f5;strokeColor=#666666;fontColor=#333333;" parent="1" vertex="1">
          <mxGeometry x="199.5" y="-120" width="1001" height="40" as="geometry"/>
        </mxCell>
        <mxCell id="9U_FHvRIvwocUFl6-Jfe-81" value="" style="endArrow=block;dashed=1;endFill=0;endSize=12;html=1;" parent="1" edge="1">
          <mxGeometry width="160" relative="1" as="geometry">
            <mxPoint x="820" y="221" as="sourcePoint"/>
            <mxPoint x="900" y="221" as="targetPoint"/>
          </mxGeometry>
        </mxCell>
        <mxCell id="9U_FHvRIvwocUFl6-Jfe-82" value="extend" style="text;html=1;strokeColor=none;fillColor=none;align=center;verticalAlign=middle;whiteSpace=wrap;rounded=0;" parent="1" vertex="1">
          <mxGeometry x="835" y="201.5" width="40" height="20" as="geometry"/>
        </mxCell>
        <mxCell id="9U_FHvRIvwocUFl6-Jfe-88" value="&lt;b&gt;TransportConsumer&lt;/b&gt;" style="text;html=1;strokeColor=none;fillColor=none;align=center;verticalAlign=middle;whiteSpace=wrap;rounded=0;" parent="1" vertex="1">
          <mxGeometry x="616.5" y="451" width="100" height="20" as="geometry"/>
        </mxCell>
        <mxCell id="9U_FHvRIvwocUFl6-Jfe-91" value="&lt;b&gt;RouteProducer&lt;/b&gt;" style="text;html=1;" parent="1" vertex="1">
          <mxGeometry x="515" y="447.5" width="110" height="30" as="geometry"/>
        </mxCell>
        <mxCell id="9U_FHvRIvwocUFl6-Jfe-92" value="&lt;b&gt;RouteConsumer&lt;/b&gt;" style="text;html=1;" parent="1" vertex="1">
          <mxGeometry x="401.5" y="448.5" width="110" height="30" as="geometry"/>
        </mxCell>
        <mxCell id="9U_FHvRIvwocUFl6-Jfe-93" value="" style="shape=singleArrow;direction=north;whiteSpace=wrap;html=1;" parent="1" vertex="1">
          <mxGeometry x="443" y="313" width="20" height="130" as="geometry"/>
        </mxCell>
        <mxCell id="9U_FHvRIvwocUFl6-Jfe-94" value="" style="shape=singleArrow;direction=south;whiteSpace=wrap;html=1;" parent="1" vertex="1">
          <mxGeometry x="540" y="313" width="20" height="130" as="geometry"/>
        </mxCell>
        <mxCell id="9U_FHvRIvwocUFl6-Jfe-97" value="&lt;b&gt;EstafetaTransportConsumer&lt;/b&gt;" style="text;html=1;" parent="1" vertex="1">
          <mxGeometry x="263.5" y="691.5" width="110" height="30" as="geometry"/>
        </mxCell>
        <mxCell id="9U_FHvRIvwocUFl6-Jfe-99" value="&lt;b&gt;&lt;font style=&quot;font-size: 14px&quot;&gt;Security&amp;nbsp; Service&lt;/font&gt;&lt;/b&gt;" style="text;html=1;strokeColor=none;fillColor=none;align=center;verticalAlign=middle;whiteSpace=wrap;rounded=0;" parent="1" vertex="1">
          <mxGeometry x="410" y="10" width="140" height="20" as="geometry"/>
        </mxCell>
        <mxCell id="EuK43S3NXK1mafAbLH0_-3" value="" style="shape=singleArrow;direction=south;whiteSpace=wrap;html=1;" parent="1" vertex="1">
          <mxGeometry x="313.5" y="550" width="30" height="130" as="geometry"/>
        </mxCell>
        <mxCell id="EuK43S3NXK1mafAbLH0_-5" value="" style="shape=singleArrow;direction=north;whiteSpace=wrap;html=1;" parent="1" vertex="1">
          <mxGeometry x="350" y="311.5" width="20" height="130" as="geometry"/>
        </mxCell>
        <mxCell id="EuK43S3NXK1mafAbLH0_-6" value="&lt;b&gt;DriverConsumer&lt;/b&gt;" style="text;html=1;" parent="1" vertex="1">
          <mxGeometry x="290" y="446" width="110" height="30" as="geometry"/>
        </mxCell>
        <mxCell id="EuK43S3NXK1mafAbLH0_-7" value="" style="shape=singleArrow;direction=north;whiteSpace=wrap;html=1;" parent="1" vertex="1">
          <mxGeometry x="646.5" y="315" width="20" height="130" as="geometry"/>
        </mxCell>
      </root>
    </mxGraphModel>
  </diagram>
</mxfile>
